<?xml version="1.0" standalone="no"?>
<!DOCTYPE svg PUBLIC "-//W3C//DTD SVG 20010904//EN"
 "http://www.w3.org/TR/2001/REC-SVG-20010904/DTD/svg10.dtd">
<svg version="1.0" xmlns="http://www.w3.org/2000/svg"
 width="1500.000000pt" height="1500.000000pt" viewBox="0 0 1500.000000 1500.000000"
 preserveAspectRatio="xMidYMid meet">
<metadata>
Created by potrace 1.14, written by Peter Selinger 2001-2017
</metadata>
<g transform="translate(0.000000,1500.000000) scale(0.100000,-0.100000)"
fill="#000000" stroke="none">
<path d="M2997 10144 c-1 -2 -34 -5 -72 -8 -39 -3 -88 -8 -110 -11 -22 -3 -53
-7 -70 -9 -16 -2 -30 -5 -30 -6 0 -1 -16 -3 -35 -5 -19 -1 -62 -10 -95 -18
-62 -16 -100 -25 -147 -34 -16 -3 -28 -10 -28 -15 0 -5 -5 -6 -10 -3 -20 12
-296 -97 -481 -191 -117 -60 -337 -197 -384 -240 -11 -11 -36 -31 -55 -45 -19
-15 -51 -40 -70 -57 -19 -17 -38 -28 -42 -26 -4 3 -8 0 -8 -6 0 -6 -19 -27
-42 -48 -82 -72 -158 -154 -151 -165 3 -5 1 -7 -4 -4 -6 4 -26 -11 -44 -34
-19 -22 -49 -57 -67 -77 -103 -117 -251 -350 -342 -538 -73 -151 -166 -405
-185 -505 -2 -9 -8 -33 -13 -52 -6 -20 -8 -38 -5 -41 3 -3 1 -11 -5 -19 -6 -7
-13 -35 -16 -62 -4 -28 -9 -63 -12 -80 -3 -16 -6 -48 -8 -71 -2 -23 -6 -45 -9
-51 -3 -5 -5 -31 -3 -57 1 -26 0 -49 -4 -51 -4 -3 -6 -93 -4 -202 2 -109 3
-213 3 -231 0 -18 3 -38 7 -44 4 -6 8 -27 10 -47 1 -20 5 -54 8 -76 3 -22 6
-47 7 -55 0 -8 3 -22 6 -30 3 -8 7 -24 8 -35 4 -38 17 -100 22 -107 4 -8 6
-17 18 -70 2 -13 7 -35 11 -50 3 -16 10 -28 15 -28 6 0 8 -4 5 -9 -4 -5 -1
-22 5 -38 7 -15 13 -33 14 -39 13 -57 126 -306 152 -332 7 -7 13 -20 13 -28 0
-8 4 -22 9 -32 5 -9 17 -35 28 -57 30 -61 57 -109 64 -115 3 -3 30 -41 59 -85
59 -89 129 -181 193 -257 52 -62 251 -262 301 -303 20 -16 48 -40 63 -52 14
-13 29 -23 32 -23 3 0 18 -10 33 -23 60 -51 68 -57 74 -57 7 0 97 -61 104 -70
3 -4 15 -10 28 -14 12 -4 22 -12 22 -17 0 -6 5 -7 10 -4 6 3 10 1 10 -6 0 -7
3 -10 6 -6 3 3 24 -5 45 -19 21 -13 43 -24 49 -24 5 0 10 -5 10 -11 0 -5 5 -7
10 -4 6 3 10 1 10 -5 0 -6 5 -8 10 -5 6 3 10 1 10 -4 0 -6 9 -11 19 -11 11 0
27 -8 37 -18 10 -9 18 -16 18 -15 2 7 46 -11 46 -18 0 -5 11 -9 25 -9 14 0 25
-5 25 -11 0 -5 5 -7 10 -4 6 3 10 2 10 -3 0 -5 6 -9 13 -10 6 -1 78 -24 158
-51 81 -28 191 -60 245 -72 55 -11 106 -23 114 -26 8 -3 33 -8 55 -10 22 -2
67 -9 100 -15 142 -25 616 -20 759 8 97 19 138 24 146 19 6 -3 10 -2 10 3 0 9
63 25 100 26 8 1 17 4 21 8 3 4 18 9 35 12 16 2 36 6 44 9 65 24 140 44 140
39 0 -4 4 -1 9 6 5 8 20 15 35 15 14 1 26 5 26 10 0 4 5 7 10 7 18 0 265 112
272 124 4 6 8 7 8 3 0 -5 12 0 28 11 15 10 52 32 82 49 98 54 130 75 130 86 0
6 3 8 6 4 9 -8 132 81 259 189 111 94 266 244 252 244 -5 0 7 14 25 30 18 17
33 34 33 38 0 4 9 16 20 27 11 12 29 34 40 49 11 16 26 34 33 41 6 8 12 18 12
23 0 6 7 12 15 16 8 3 15 12 15 21 0 8 4 15 8 15 5 0 15 12 23 28 8 15 17 29
20 32 13 12 109 163 115 183 4 12 10 24 14 27 28 19 135 275 199 475 155 488
171 1000 45 1498 -25 102 -90 291 -117 342 -8 17 -17 39 -19 50 -1 11 -6 25
-11 30 -4 6 -32 60 -62 122 -30 61 -67 129 -81 151 -15 22 -26 44 -24 48 1 4
-2 10 -7 13 -5 3 -39 51 -75 106 -36 55 -84 121 -107 147 -23 25 -41 49 -41
53 0 3 -12 17 -26 30 -15 14 -25 25 -22 25 5 0 -33 42 -125 136 -164 167 -430
360 -692 501 -40 22 -151 73 -157 73 -4 0 -31 11 -60 24 -50 22 -162 65 -173
66 -3 0 -10 2 -17 5 -75 23 -95 29 -108 30 -9 0 -20 4 -26 8 -6 3 -27 8 -47
11 -20 2 -40 7 -45 10 -5 3 -27 8 -48 12 -160 25 -231 34 -304 40 -66 6 -398
12 -403 8z"/>
<path d="M10710 8874 c-327 -39 -603 -150 -836 -335 -83 -66 -206 -186 -239
-233 -11 -16 -29 -40 -41 -55 -28 -36 -94 -138 -94 -145 0 -4 -11 -24 -25 -46
-14 -22 -22 -40 -19 -40 4 0 1 -7 -6 -15 -7 -8 -10 -15 -6 -15 4 0 -1 -11 -10
-25 -9 -14 -12 -25 -8 -25 5 0 4 -4 -1 -8 -10 -7 -32 -62 -40 -102 -3 -11 -7
-30 -10 -42 -15 -71 -20 -1 -22 295 -1 373 -3 407 -15 407 -5 0 -6 9 -3 20 4
13 2 20 -6 20 -7 0 -9 3 -6 7 4 3 2 12 -4 20 -6 7 -9 13 -5 13 8 0 -44 83 -58
92 -6 4 -7 8 -2 8 5 0 -14 18 -42 41 -100 79 -210 98 -563 99 l-205 0 0 -811
c1 -446 -2 -813 -7 -816 -4 -2 -7 -19 -6 -36 0 -18 -6 -54 -14 -82 -8 -27 -16
-57 -18 -65 -2 -8 -8 -18 -12 -21 -5 -3 -9 -13 -11 -21 -1 -9 -19 -36 -39 -61
-75 -92 -230 -139 -387 -118 -146 19 -239 80 -294 192 -52 107 -55 145 -54
764 0 314 -3 590 -6 615 -3 25 -7 65 -10 90 -12 125 -75 233 -170 294 -90 57
-157 68 -463 74 l-272 5 0 -809 c0 -476 4 -856 10 -924 25 -284 103 -523 226
-694 51 -69 199 -216 220 -216 7 0 13 -4 13 -10 0 -5 7 -10 15 -10 8 0 15 -4
15 -8 0 -9 37 -29 54 -30 5 0 12 -4 15 -9 9 -14 201 -97 201 -88 0 3 12 0 28
-6 30 -12 53 -18 97 -25 17 -3 37 -8 45 -11 8 -3 26 -7 40 -8 14 -2 43 -6 65
-10 22 -3 60 -7 85 -7 25 0 49 -3 54 -6 8 -5 149 -4 394 2 34 0 62 4 62 9 0 4
16 6 35 4 19 -2 37 -2 40 1 5 6 17 9 60 16 11 2 39 8 62 15 23 6 45 10 50 9 4
-1 18 3 30 10 12 7 26 11 30 11 4 -1 16 1 26 4 9 4 25 10 35 14 9 3 20 5 25 5
4 -1 7 3 7 9 0 5 4 8 9 4 5 -3 12 -1 16 5 4 6 11 8 16 5 5 -4 9 -1 9 4 0 6 9
11 19 11 11 0 21 4 23 8 2 4 25 21 53 37 54 31 55 32 104 72 40 33 88 80 116
114 36 42 86 119 79 119 -4 0 1 7 12 15 10 8 15 15 11 15 -5 0 -1 7 7 16 9 8
14 20 11 25 -4 5 -1 9 5 9 6 0 8 5 5 10 -3 6 -1 10 6 10 7 0 9 3 6 7 -4 3 -2
12 4 20 6 7 8 13 3 13 -5 0 -3 4 4 8 7 5 14 17 16 28 8 41 11 49 20 55 4 4 9
21 10 38 0 17 4 31 8 31 5 0 7 3 7 8 -1 4 -1 9 1 12 1 3 3 15 6 28 2 12 6 32
8 45 3 12 5 22 7 22 1 0 3 14 4 30 2 17 4 31 5 33 1 1 4 11 5 22 1 11 4 21 5
23 3 3 9 78 12 135 1 50 17 42 24 -13 2 -20 8 -45 13 -54 5 -9 9 -19 10 -23 1
-5 1 -9 2 -10 0 -2 3 -14 5 -28 2 -13 10 -28 17 -32 6 -4 8 -8 4 -8 -4 0 -3
-9 3 -21 6 -11 13 -30 15 -41 3 -12 10 -25 16 -28 6 -4 10 -10 9 -14 -2 -10
43 -106 50 -106 4 0 7 -6 7 -13 0 -34 151 -232 257 -337 42 -41 76 -71 76 -67
0 5 10 -2 23 -15 30 -32 97 -81 97 -72 0 4 7 -1 15 -12 8 -10 15 -15 15 -11 0
4 12 -3 27 -17 15 -14 30 -23 35 -20 4 3 8 0 8 -6 0 -6 5 -8 10 -5 6 3 10 1
10 -4 0 -6 3 -10 8 -9 4 1 31 -10 59 -25 29 -15 56 -28 60 -28 5 -1 17 -6 28
-12 28 -15 145 -57 175 -62 14 -3 36 -8 50 -12 14 -3 32 -7 40 -9 8 -2 31 -6
50 -10 63 -13 75 -14 117 -14 23 0 44 -3 46 -7 11 -17 308 -2 414 21 59 13 70
16 128 32 33 9 65 17 70 19 6 1 28 10 50 20 22 9 45 18 50 19 6 1 20 8 33 14
12 7 22 10 22 7 0 -2 9 3 20 13 12 9 24 17 28 18 17 1 82 38 82 46 0 5 4 7 8
4 5 -3 19 4 30 15 12 10 24 18 26 17 3 -2 13 4 23 12 10 9 40 31 66 48 106 73
337 320 337 360 0 7 4 12 8 12 8 0 46 71 42 78 -1 2 7 10 17 18 10 7 14 14 10
14 -5 0 -1 7 7 16 9 8 14 20 11 25 -4 5 -1 9 4 9 6 0 11 7 11 15 0 9 7 27 16
40 9 13 13 29 9 35 -3 5 -1 10 5 10 6 0 8 5 5 10 -3 6 -1 10 5 10 6 0 9 4 5 9
-3 5 0 13 6 16 5 4 8 13 5 20 -2 7 -2 16 2 20 4 4 8 11 8 16 1 5 3 11 4 14 3
6 7 22 9 35 0 6 4 10 9 10 4 0 7 -231 7 -514 0 -507 0 -515 20 -518 28 -4
1707 1 1775 6 45 3 115 14 140 22 3 1 20 5 38 9 17 4 32 11 32 15 0 4 12 11
27 15 15 3 39 19 54 35 15 15 31 25 36 22 4 -4 5 -3 1 2 -4 5 1 21 12 36 11
16 20 30 20 33 0 2 7 22 16 43 9 22 19 57 21 79 2 22 6 56 8 75 6 51 7 97 6
268 l-1 152 -647 0 -648 0 -2 778 c0 427 -4 802 -8 832 -3 30 -6 61 -7 68 -1
6 -4 12 -7 12 -4 0 -8 12 -9 27 -1 15 -7 30 -13 34 -6 3 -11 10 -11 15 -1 21
-18 54 -28 54 -6 0 -9 4 -6 9 8 12 -64 75 -113 101 -88 44 -143 52 -431 57
l-275 6 0 -517 c0 -342 -3 -515 -10 -513 -5 2 -10 9 -10 15 0 5 -3 13 -7 17
-4 4 -4 13 -1 21 3 8 0 14 -6 14 -6 0 -10 3 -9 8 3 10 -29 106 -54 162 -37 83
-87 180 -98 190 -10 9 -80 110 -80 115 0 2 -44 49 -97 103 -228 231 -478 364
-803 427 -82 16 -365 28 -440 19z m245 -834 c3 -5 12 -7 19 -4 8 3 17 0 21 -5
3 -6 10 -9 15 -6 16 10 139 -47 195 -90 47 -35 183 -175 171 -175 -3 0 5 -19
18 -42 21 -38 49 -111 51 -130 0 -3 3 -9 7 -13 4 -4 4 -13 1 -21 -3 -8 -1 -14
3 -14 10 0 12 -20 12 -115 1 -74 -4 -125 -12 -146 -4 -9 -6 -20 -5 -25 1 -5
-3 -22 -10 -38 -6 -16 -13 -36 -14 -46 -2 -9 -10 -29 -20 -43 -9 -15 -17 -33
-17 -42 0 -9 -7 -18 -15 -21 -8 -4 -13 -10 -10 -14 3 -5 -5 -16 -17 -24 -12
-9 -18 -16 -13 -16 6 0 -20 -29 -58 -64 -120 -113 -266 -169 -437 -169 -113 1
-199 21 -292 70 -95 49 -238 188 -222 214 3 5 1 9 -4 9 -9 0 -37 50 -34 63 1
4 -3 7 -10 7 -6 0 -9 3 -6 6 3 3 -3 31 -14 62 -11 31 -22 75 -24 97 -8 77 -9
177 -1 182 4 2 5 15 3 28 -3 14 -1 27 4 30 5 3 9 13 9 23 0 26 11 62 39 122 8
19 16 38 16 42 1 4 9 17 19 28 9 11 17 24 17 29 0 5 33 43 74 85 52 52 95 85
145 110 39 20 71 33 71 30 0 -4 7 -1 15 6 8 6 19 9 24 6 5 -4 12 -2 16 3 3 5
14 8 25 6 11 -2 22 0 24 4 7 11 214 12 221 1z"/>
</g>
</svg>
